<mxfile host="app.diagrams.net" modified="2021-10-10T03:03:21.170Z" agent="5.0 (Windows NT 10.0; Win64; x64) AppleWebKit/537.36 (KHTML, like Gecko) Chrome/94.0.4606.71 Safari/537.36" etag="C01pfob3FY_HTW-SwY66" version="15.4.3" type="github">
  <diagram id="mvgFgjD-C_Mpvr5_gQOi" name="Page-1">
    <mxGraphModel dx="868" dy="482" grid="1" gridSize="10" guides="1" tooltips="1" connect="1" arrows="1" fold="1" page="1" pageScale="1" pageWidth="850" pageHeight="1100" math="0" shadow="0">
      <root>
        <mxCell id="0" />
        <mxCell id="1" parent="0" />
        <mxCell id="XFq0rDm_TGV1jl30GYLc-4" style="edgeStyle=orthogonalEdgeStyle;rounded=0;orthogonalLoop=1;jettySize=auto;html=1;entryX=0;entryY=1;entryDx=0;entryDy=0;endArrow=none;endFill=0;" parent="1" target="XFq0rDm_TGV1jl30GYLc-3" edge="1">
          <mxGeometry relative="1" as="geometry">
            <mxPoint x="530" y="216" as="sourcePoint" />
            <Array as="points">
              <mxPoint x="560" y="216" />
              <mxPoint x="560" y="156" />
            </Array>
          </mxGeometry>
        </mxCell>
        <mxCell id="XFq0rDm_TGV1jl30GYLc-1" value="Funcionario" style="shape=umlActor;verticalLabelPosition=bottom;verticalAlign=top;html=1;" parent="1" vertex="1">
          <mxGeometry x="500" y="210" width="30" height="60" as="geometry" />
        </mxCell>
        <mxCell id="XFq0rDm_TGV1jl30GYLc-3" value="Login" style="ellipse;whiteSpace=wrap;html=1;" parent="1" vertex="1">
          <mxGeometry x="590" y="130" width="90" height="30" as="geometry" />
        </mxCell>
        <mxCell id="XFq0rDm_TGV1jl30GYLc-6" style="edgeStyle=orthogonalEdgeStyle;rounded=0;orthogonalLoop=1;jettySize=auto;html=1;exitX=0;exitY=0.5;exitDx=0;exitDy=0;endArrow=none;endFill=0;" parent="1" source="XFq0rDm_TGV1jl30GYLc-5" edge="1">
          <mxGeometry relative="1" as="geometry">
            <mxPoint x="540" y="250" as="targetPoint" />
          </mxGeometry>
        </mxCell>
        <mxCell id="XFq0rDm_TGV1jl30GYLc-5" value="Registro de usuario" style="ellipse;whiteSpace=wrap;html=1;" parent="1" vertex="1">
          <mxGeometry x="680" y="225" width="110" height="30" as="geometry" />
        </mxCell>
        <mxCell id="XFq0rDm_TGV1jl30GYLc-8" style="edgeStyle=orthogonalEdgeStyle;rounded=0;orthogonalLoop=1;jettySize=auto;html=1;exitX=0;exitY=0.5;exitDx=0;exitDy=0;endArrow=none;endFill=0;" parent="1" source="XFq0rDm_TGV1jl30GYLc-7" edge="1">
          <mxGeometry relative="1" as="geometry">
            <mxPoint x="510" y="290" as="targetPoint" />
            <Array as="points">
              <mxPoint x="500" y="315" />
              <mxPoint x="500" y="290" />
            </Array>
          </mxGeometry>
        </mxCell>
        <mxCell id="XFq0rDm_TGV1jl30GYLc-7" value="Mantenimiento de socio" style="ellipse;whiteSpace=wrap;html=1;" parent="1" vertex="1">
          <mxGeometry x="730" y="290" width="90" height="50" as="geometry" />
        </mxCell>
        <mxCell id="XFq0rDm_TGV1jl30GYLc-10" style="edgeStyle=orthogonalEdgeStyle;rounded=0;orthogonalLoop=1;jettySize=auto;html=1;exitX=0.5;exitY=1;exitDx=0;exitDy=0;endArrow=none;endFill=0;" parent="1" source="XFq0rDm_TGV1jl30GYLc-9" edge="1">
          <mxGeometry relative="1" as="geometry">
            <mxPoint x="510" y="200" as="targetPoint" />
          </mxGeometry>
        </mxCell>
        <mxCell id="XFq0rDm_TGV1jl30GYLc-9" value="Pagar mensualidad" style="ellipse;whiteSpace=wrap;html=1;" parent="1" vertex="1">
          <mxGeometry x="390" y="80" width="105" height="40" as="geometry" />
        </mxCell>
        <mxCell id="XFq0rDm_TGV1jl30GYLc-12" style="edgeStyle=orthogonalEdgeStyle;rounded=0;orthogonalLoop=1;jettySize=auto;html=1;exitX=1;exitY=0.5;exitDx=0;exitDy=0;endArrow=none;endFill=0;" parent="1" source="XFq0rDm_TGV1jl30GYLc-11" edge="1">
          <mxGeometry relative="1" as="geometry">
            <mxPoint x="470" y="240" as="targetPoint" />
            <Array as="points">
              <mxPoint x="380" y="160" />
              <mxPoint x="380" y="200" />
              <mxPoint x="450" y="200" />
              <mxPoint x="450" y="240" />
            </Array>
          </mxGeometry>
        </mxCell>
        <mxCell id="XFq0rDm_TGV1jl30GYLc-11" value="Ingreso a una actividad" style="ellipse;whiteSpace=wrap;html=1;" parent="1" vertex="1">
          <mxGeometry x="250" y="140" width="90" height="40" as="geometry" />
        </mxCell>
        <mxCell id="XFq0rDm_TGV1jl30GYLc-15" style="edgeStyle=orthogonalEdgeStyle;rounded=0;orthogonalLoop=1;jettySize=auto;html=1;exitX=1;exitY=1;exitDx=0;exitDy=0;endArrow=none;endFill=0;" parent="1" source="XFq0rDm_TGV1jl30GYLc-14" edge="1">
          <mxGeometry relative="1" as="geometry">
            <mxPoint x="480" y="280" as="targetPoint" />
            <Array as="points">
              <mxPoint x="309" y="270" />
              <mxPoint x="460" y="270" />
              <mxPoint x="460" y="280" />
            </Array>
          </mxGeometry>
        </mxCell>
        <mxCell id="XFq0rDm_TGV1jl30GYLc-14" value="Exportar informaciÃ³n&amp;nbsp;" style="ellipse;whiteSpace=wrap;html=1;" parent="1" vertex="1">
          <mxGeometry x="240" y="217.5" width="80" height="45" as="geometry" />
        </mxCell>
        <mxCell id="XFq0rDm_TGV1jl30GYLc-17" style="edgeStyle=orthogonalEdgeStyle;rounded=0;orthogonalLoop=1;jettySize=auto;html=1;exitX=1;exitY=0.5;exitDx=0;exitDy=0;endArrow=none;endFill=0;" parent="1" source="XFq0rDm_TGV1jl30GYLc-16" edge="1">
          <mxGeometry relative="1" as="geometry">
            <mxPoint x="480" y="300" as="targetPoint" />
          </mxGeometry>
        </mxCell>
        <mxCell id="XFq0rDm_TGV1jl30GYLc-16" value="Logout" style="ellipse;whiteSpace=wrap;html=1;" parent="1" vertex="1">
          <mxGeometry x="260" y="340" width="80" height="30" as="geometry" />
        </mxCell>
      </root>
    </mxGraphModel>
  </diagram>
</mxfile>
